<?xml version="1.0" standalone="no"?>
<!DOCTYPE svg PUBLIC "-//W3C//DTD SVG 20010904//EN"
 "http://www.w3.org/TR/2001/REC-SVG-20010904/DTD/svg10.dtd">
<svg version="1.0" xmlns="http://www.w3.org/2000/svg"
 width="332.000000pt" height="332.000000pt" viewBox="0 0 332.000000 332.000000"
 preserveAspectRatio="xMidYMid meet">
<metadata>
Created by potrace 1.11, written by Peter Selinger 2001-2013
</metadata>
<g transform="translate(0.000000,332.000000) scale(0.100000,-0.100000)"
fill="#000000" stroke="none">
<path d="M1415 2856 c-78 -36 -156 -114 -199 -198 -62 -122 -70 -227 -25 -335
12 -30 11 -33 -35 -84 -102 -113 -265 -376 -334 -536 -53 -123 -64 -234 -37
-350 30 -128 91 -214 196 -279 68 -42 74 -65 19 -74 -98 -16 -178 -102 -188
-199 -7 -81 4 -116 55 -168 l45 -47 -4 -106 c-4 -74 -11 -121 -27 -160 -11
-30 -21 -58 -21 -62 0 -17 29 -7 35 12 7 22 35 28 35 6 0 -14 67 -26 157 -26
l52 0 -2 92 c-2 93 12 146 40 155 24 8 46 -48 54 -139 4 -49 11 -94 16 -99 5
-5 217 -8 499 -7 l489 3 5 55 5 55 27 -57 27 -58 121 0 c67 0 120 3 118 8 -2
4 -24 50 -50 102 -27 53 -57 133 -69 179 l-21 83 30 32 c39 41 61 86 68 138
18 127 -94 270 -233 298 l-54 12 32 36 c41 47 84 142 98 217 49 267 -91 612
-361 886 -81 83 -224 189 -254 189 -21 0 -24 14 -9 56 8 21 14 78 15 126 0 78
-3 92 -33 149 -27 54 -40 67 -86 91 -67 35 -127 37 -196 4z m5 -80 c0 -15 -21
-26 -51 -26 -22 0 -24 11 -7 28 17 17 58 15 58 -2z m-94 -75 c-8 -15 -31 -40
-50 -55 -27 -20 -36 -35 -36 -56 0 -16 5 -32 10 -35 15 -9 12 -88 -4 -110 -13
-18 -14 -18 -26 5 -18 34 -8 146 18 196 23 45 78 98 93 88 5 -3 3 -17 -5 -33z
m-9 -88 c5 -15 -28 -26 -41 -13 -8 8 -7 14 4 20 17 11 32 8 37 -7z m410 -242
c26 -10 31 -16 23 -29 -25 -44 -25 -44 -63 -26 -21 10 -37 22 -37 28 0 12 32
48 39 43 3 -2 21 -9 38 -16z m-20 -288 c37 -17 73 -69 73 -105 0 -58 -62 -82
-304 -118 -165 -24 -285 -26 -325 -5 -29 15 -61 68 -61 102 0 11 12 31 28 45
51 49 144 76 327 92 153 14 213 11 262 -11z m-687 -117 c-192 -366 -198 -608
-20 -765 44 -38 58 -57 51 -64 -6 -6 -11 -19 -11 -30 0 -17 -3 -17 -41 5 -55
31 -122 106 -156 176 -23 47 -28 73 -31 154 -5 113 13 184 82 333 48 103 179
325 192 325 2 0 -28 -60 -66 -134z m564 -487 c3 -34 6 -73 6 -85 0 -33 -34
-64 -70 -64 l-30 0 0 99 c0 108 0 107 61 110 25 1 26 -2 33 -60z m-114 -50 c0
-108 -6 -117 -44 -66 -14 19 -21 48 -24 91 -4 56 -2 65 14 69 54 14 54 14 54
-94z m-320 -381 c0 -4 -11 -3 -25 2 -14 6 -37 15 -52 21 -25 9 -26 12 -10 20
9 6 17 18 17 27 1 12 11 5 35 -23 19 -22 35 -43 35 -47z m-47 -91 c4 -34 15
-50 52 -84 25 -23 71 -51 101 -63 205 -76 660 -28 781 83 24 22 39 18 30 -7
-9 -22 -117 -73 -191 -90 -34 -8 -86 -20 -116 -27 -77 -18 -380 -18 -445 0
-137 38 -177 56 -216 98 -33 35 -43 65 -35 108 9 47 32 36 39 -18z m-218 -79
c-28 -48 -34 -142 -13 -181 10 -19 9 -20 -4 -9 -25 20 -40 91 -29 131 11 36
51 101 63 101 4 0 -4 -19 -17 -42z m313 -250 c17 -17 15 -48 -4 -55 -36 -14
-83 35 -57 60 11 11 48 8 61 -5z m-257 -301 c-20 -20 -23 1 -9 60 l13 58 3
-54 c2 -30 -2 -59 -7 -64z"/>
</g>
</svg>
